<?xml version="1.0" encoding="utf-8"?>
<!-- Generator: Adobe Illustrator 27.4.1, SVG Export Plug-In . SVG Version: 6.00 Build 0)  -->
<svg version="1.1" id="Camada_1" xmlns="http://www.w3.org/2000/svg" xmlns:xlink="http://www.w3.org/1999/xlink" x="0px" y="0px"
	 viewBox="0 0 8049.59 8202.1" style="enable-background:new 0 0 8049.59 8202.1;" xml:space="preserve">
<style type="text/css">
	.st0{enable-background:new    ;}
	.st1{fill:#C53F34;}
	.st2{fill:#6C4F2F;}
	.st3{fill:#E4B143;}
	.st4{fill:#FFFFFF;}
</style>
<g>
	<g>
		<g class="st0">
			<path class="st1" d="M4024.87,8002.1c-2125.18,0-3854.12-1750-3854.12-3901.04C170.75,1950,1899.69,200,4024.87,200
				c2125.09,0,3853.98,1750,3853.98,3901.06C7878.84,6252.09,6149.96,8002.1,4024.87,8002.1z"/>
		</g>
	</g>
	<g>
		<path class="st2" d="M5984.84,3901.85c-0.36,0.44-0.77,0.87-1.1,1.33L4126.97,5956.85c-25.71,28.49-62.27,44.7-100.57,44.7
			c-38.34,0-74.92-16.11-100.64-44.54L2065.85,3903.22c-0.46-0.47-0.87-0.93-1.31-1.38c-243.87-276.9-378.23-641.98-378.23-1028.05
			c0-810.94,597.96-1470.68,1332.92-1470.68c387.52,0,750.68,184.93,1003.86,503.01c253.33-318.08,617.72-503.01,1007.15-503.01
			c735.07,0,1333.04,659.74,1333.04,1470.68C6363.28,3259.81,6228.92,3624.91,5984.84,3901.85z"/>
		<path class="st3" d="M2308.32,3085.28c-77.97-88.54-126.39-210.24-126.39-344.65c0-270.82,196.85-490.22,439.76-490.22
			c154.6,0,289.58,89.05,368.77,222.33c78.88-133.28,215.01-222.33,369.87-222.33c242.91,0,439.84,219.4,439.84,490.22
			c0,134.41-48.68,256.1-126.75,344.65l-681.79,754.4L2308.32,3085.28z M4701.94,4423.54c0,0-675.34,747.75-678.57,751.63
			c-4.74-5.51-680.05-751.63-680.05-751.6c-77.52-88.12-125.5-209.06-125.5-342.59c0-268.99,195.27-487.01,436.23-487.01
			c153.15,0,287.6,87.64,366.28,220.1c15.27-25.79,34.47-47.15,53.87-69.21c18.53-21.14,40.59-42.85,62.43-59.89
			c71.44-57.44,160.09-91,254.82-91c240.95,0,436.3,218.02,436.3,487.01C4827.73,4214.51,4779.49,4335.45,4701.94,4423.54z
			 M5729.39,3084.53c0,0-675.32,747.84-678.61,751.6c-4.72-5.42-680-751.6-680-751.54c-77.54-88.06-125.52-209.08-125.52-342.56
			c0-269.03,195.25-487.04,436.14-487.04c153.24,0,287.7,87.67,366.35,220.15c15.27-25.82,34.47-47.2,53.83-69.24
			c18.57-21.1,40.57-42.84,62.47-59.92c71.38-57.4,160.13-90.99,254.82-90.99c240.97,0,436.3,218.01,436.3,487.04
			C5855.17,2875.51,5806.91,2996.5,5729.39,3084.53z"/>
	</g>
	<g>
		<path class="st4" d="M2753.51,6215.09c-229.63-157.33-500.95-50.55-636.81,167.82c-150.91,242.58-103.12,480.42,122.51,635.01
			c231.59,158.67,500.9,54.89,636.79-163.52C3027.12,6611.51,2978.83,6369.47,2753.51,6215.09z M2666.06,6753.49
			c-100.86,152.64-239.99,205.36-336.77,137.76c-114.94-80.27-114.44-238.23-2.66-407.41c100.85-152.64,239.99-205.36,336.76-137.77
			C2778.34,6426.35,2777.83,6584.31,2666.06,6753.49z"/>
		<path class="st4" d="M5248.9,6176.88c20.66-4.5,43.58-20.48,55.44-33.48c-22.12-41.59-20.31-68.52-5.43-79.3
			c42.28-30.66,121.7-25.24,175.45-59.44c72.27-45.99,94.84-128.69,58.88-198.98c-13.91-27.2-36.72-44.42-65.39-38.2
			c-20.68,4.49-43.61,20.48-55.44,33.47c22.12,41.58,20.3,68.51,5.42,79.3c-42.27,30.66-121.71,25.23-175.44,59.45
			c-72.27,45.99-94.85,128.69-58.89,198.98C5197.42,6165.87,5220.23,6183.1,5248.9,6176.88z"/>
		<path class="st4" d="M2034.82,5911.04c39.56,32.85,58.3,62.02,79.41,108.18c16.67,36.49,40.52,59.72,73.15,59.43
			c37.02-0.32,81.61-28.57,109.34-62.56c-9.88-76.48-52.42-144.27-125.58-211.16c-165.35-151.15-449.49-166.25-639.79,42.91
			c-197.02,216.62-127.53,478.33,29.56,627.1c53.9,51.05,112.95,86.19,167.45,94.22c69.69,10.27,133.34-16.73,168.64-55.87
			c-84.41-41.72-121.62-64.73-179.2-115.87c-85.62-76.03-136.72-246.15,1.7-409.56C1830.06,5857.33,1942.08,5834,2034.82,5911.04z"
			/>
		<path class="st4" d="M1560.11,5149.56c94.38,94.5,194.12,137.54,326.97,93.22c83.35-27.8,239.41-162.28,150.38-408.08
			c-35.25-97.31-123.14-210.45-243.63-267.45c-27.21,5.94-64.33,21.41-80.78,39.55c-28.77,31.73-20.66,55.14,16.42,83.38
			c52.68,40.13,94.4,86.64,120.05,153.64c32.78,85.65-1.9,179.4-79.97,204.67c-130.23,42.16-232.21-79.78-282.35-191.18
			c-27.51-12.07-116.72-29.06-174.5-6.86c16.84,31.77,35.28,86.99,49.85,131.15c56.03,169.76,29.17,285.26-84.25,325.88
			c-126.85,45.42-256.25-46.8-320.67-227.77c-36.1-101.42-43.8-195.72-45.8-251.98c-70.05,20.77-133.5,61.58-142.67,133.86
			c-6.42,50.9,3.67,106.57,32.33,199.38c80.61,260.98,311.26,447.67,557.03,359.69C1505.58,5468.02,1595.66,5349.03,1560.11,5149.56
			z"/>
		<path class="st4" d="M3565.64,6604.47c-76.16,0.41-140.78,27.16-209.71,112.56c47.2-112.51,56.47-181.07-29.75-230.73
			c-45-25.92-87.45-35.88-124.5-22.25c-38.29,14.1-63.79,41.88-79.98,92.53c48.14,13.5,60.71,56.55,38.33,110.04l-271.66,649.62
			c60.31,32.3,114.85,55.52,171.38,70.64c37.69,5.98,59.19-0.75,70.15-34.53l158.81-388.86c43.41-106.26,79.48-152.99,162.03-153.83
			c46.47-0.48,65.89,13.3,99.56,41.13c26.38,21.8,65.65,16.32,94.06-4.93c49.58-37.08,90.17-131.37,97.23-159.27
			C3719.53,6647.98,3659.04,6603.92,3565.64,6604.47z"/>
		<path class="st4" d="M7112.45,4846.93c-116.88-42.22-237.16-4.75-324.94,92.55c-40.02,44.36-91.4,96.55-152.51,80.72
			c-48.35-12.52-68.18-59.63-53.57-115.99c7.93-30.54,32.46-70.57,49.04-94c24.12-34.09,27.18-64.39,2.64-86.15
			c-25.23-22.36-58.86-34.09-98.41-46.96c-12.88,8.89-72.84,71.12-112.31,193.87c-53.15,165.22,28.29,318.61,187.04,362.06
			c121.6,33.28,191.45-13.08,260.5-86.87c83.91-89.66,118.01-119.71,179.05-106.29c48.95,10.77,74.29,78.22,58.95,147.15
			c-21.26,95.46-103.14,197.34-150.39,244.03c52.28,38.53,123.99,48.07,182.42-8.35c43.53-42.04,89.2-94.32,120.54-196.2
			C7317.01,5042.77,7262.1,4900.97,7112.45,4846.93z"/>
		<path class="st4" d="M4518.14,7410.06c-36.26-2.27-52.06-26.81-51.98-59.56l0.83-422.8c0.4-211.01-94.77-311.42-299.04-324.23
			c-130.26-8.17-310.41,80.28-369.1,136.33c8.16,69.65,44.28,119.05,84.81,121.59c19.42,1.21,39.6-7.63,60.07-18.56
			c44.78-23.94,124.11-64.75,183.68-61.02c82.3,5.16,119.82,54.46,121.27,150.56l0.79,52.28
			c-231.43,13.76-468.71,130.39-476.55,331.55c-5.56,142.65,99.59,243.92,245.73,243.4c75.76-0.28,191.17-38.01,246.49-125.46
			c16.69,69.64,63.12,123.52,155.91,124.82c92.68,1.27,158.4-62.82,176.94-99.49l2.03-57.8
			C4587.22,7405.18,4537.2,7411.26,4518.14,7410.06z M4202.05,7348.23c-33.17,23.33-72.69,46.43-115.73,47.75
			c-60.57,1.85-88.54-53.74-89.13-114.07c-0.86-89.62,86.35-153.8,249.58-172.12l0.15,132.83
			C4246.98,7294.53,4229.65,7328.81,4202.05,7348.23z"/>
		<path class="st4" d="M6855.7,5632.26c-17.5,71.31-55.79,166.61-85.64,212.05c-80.16,122.01-218.02,188.39-372.23,87.16
			c70.07-93.33,193.34-248.64,218.9-296.17c38.63-71.84,58.97-100.32,49.93-171.31l-73.5-57.65
			c-134.67-105.63-339.6-126.77-487.54,62.5c-158.23,202.45-88.73,488.96,151.57,645.47c220.22,143.44,464.27,109.32,620.1-133.86
			c47.16-73.59,72.54-137.25,70.95-190.97C6946.39,5727.4,6910.76,5671.18,6855.7,5632.26z M6217.66,5575.89
			c59.95-83.28,155.5-76.29,229.73-18.63c10.55,8.21,14.34,41.4,8.62,52.3c-21.48,41.02-104.52,156.39-171.33,235.37
			C6199.22,5764.77,6170.07,5642,6217.66,5575.89z"/>
		<path class="st4" d="M5415.77,6976.18c-61.88,58.22-86.31,86.96-155.14,123.31c-173.34,91.56-297.4,46.72-389.44-127.82
			c-84.09-159.49-60.69-284.03,54.87-349.66c60.33-34.26,100.52-39.62,151.29-44.87c39.83-4.11,71.48-12.14,81.94-40.45
			c12.08-32.7,1.36-80.55-21.51-122.79c-63.75-8.59-187.31,8.18-284.02,57.73c-223.73,114.62-315.63,386.32-180.25,632.95
			c99.89,181.99,268.33,241.52,428.95,220.48l-2.68,96.61c98.89-8.08,126.52-3.01,133.3,24.92c5.47,22.52-15.89,49.83-61.17,60.47
			c-26.55,6.24-62.99,13.46-96.23,7.11c-2.74,100.69,95.72,103.18,195.66,65.41c76.62-28.97,118.94-86.7,102.58-160.09
			c-9.48-42.51-70.6-91.71-176.58-71.31l1.59-45.63c25.52-8.63,50.42-19.2,74.32-31.58c66.45-34.42,132.47-83.31,158.3-129.97
			c29.11-52.57,29.58-98.5-2.52-163.62L5415.77,6976.18z"/>
		<path class="st4" d="M5481.65,6107.72c-207.03,162.3-229.84,438.1-59.37,659.3c175.94,228.33,428.53,260.64,637.15,97.1
			c207.03-162.3,229.84-438.1,59.37-659.3C5942.86,5976.49,5690.27,5944.16,5481.65,6107.72z M5961.3,6738.77
			c-108.07,83.16-239.78,39.39-365.1-132.82c-106-145.64-112.29-303.57-20.35-374.33c108.07-83.16,243.72-37.95,369.04,134.24
			C6050.9,6511.52,6053.24,6668.02,5961.3,6738.77z"/>
	</g>
</g>
</svg>
