<svg width="289" height="77" viewBox="0 0 289 77" fill="none" xmlns="http://www.w3.org/2000/svg">
<path d="M179.469 70.192C206.712 70.6467 227.483 70.284 248.083 67.2707C255.497 66.1867 262.821 64.244 270.043 62.1867C273.236 61.2774 276.309 59.432 279.017 57.4427C283.491 54.156 283.776 50.5414 279.879 46.676C277.281 44.1 274.276 41.84 271.169 39.8933C263.057 34.808 254.149 31.3814 245.171 28.188C222.999 20.304 200.144 15.2267 176.919 11.6573C150.56 7.60801 124.056 5.89868 97.4053 6.69735C77.776 7.28535 58.2307 8.91736 38.832 12.0787C27.8907 13.8614 16.9467 15.6213 6.00401 17.392C5.86401 17.4147 5.72532 17.4494 5.58399 17.468C2.71866 17.8507 1.02 17.1027 0.725331 15.332C0.439997 13.6014 1.74801 12.4307 4.74001 11.8654C23.456 8.32268 42.16 4.64936 61.136 2.77736C81.536 0.764029 101.988 -0.234637 122.499 0.410696C157.315 1.5067 191.603 6.25602 225.245 15.364C238.564 18.9693 251.711 23.188 264.165 29.1694C269.9 31.924 275.332 35.38 280.648 38.8987C282.949 40.424 284.911 42.704 286.509 45.0014C290.081 50.1267 289.713 55.7827 285.248 60.1347C282.655 62.6627 279.483 64.7814 276.235 66.4187C268.54 70.2987 260.128 71.9467 251.672 73.1587C224.532 77.0467 197.256 77.348 169.931 75.9627C158.853 75.4013 147.768 74.9147 136.711 74.072C122.393 72.9814 108.072 71.836 93.808 70.2214C80.3987 68.704 67.008 66.856 53.7147 64.5507C46.1947 63.2467 38.804 60.9827 31.516 58.648C28.0707 57.544 24.7173 55.6373 21.828 53.4307C15.376 48.5027 15.04 41.6987 20.552 35.7107C23.804 32.1774 27.9373 29.9653 32.2867 28.1293C42.0347 24.0173 52.264 21.5707 62.6227 19.6933C76.952 17.0947 91.4093 16.2014 105.961 16.9734C109.588 17.1654 111.217 18.1627 111.047 20.1147C110.889 21.896 109.368 22.7093 105.956 22.8253C97.288 23.12 88.5947 23.1027 79.956 23.7774C65.164 24.9307 50.676 27.828 36.7693 33.132C33.6093 34.336 30.4867 35.8867 27.7213 37.816C21.32 42.2854 21.5533 46.684 28.3653 50.3507C31.5947 52.0894 35.0853 53.4467 38.5933 54.5414C49.6173 57.988 60.976 60.0254 72.4147 61.308C94.1733 63.748 115.952 66.0854 137.769 67.9067C153.777 69.2427 169.861 69.688 179.469 70.192Z" fill="#D61A49"/>
</svg>
