<svg width="138" height="116" viewBox="0 0 138 116" fill="none" xmlns="http://www.w3.org/2000/svg">
<path d="M78.376 109.543C81.264 109.22 86.8293 108.955 92.2467 107.919C104.237 105.624 114.965 100.671 123.303 91.4253C129.231 84.8506 132.029 77.2573 130.52 68.3C128.96 59.0493 124.661 51.148 118.667 44.116C109.428 33.2733 97.536 26.5733 84.016 22.6693C70.732 18.832 57.0733 18.836 43.4107 19.3306C42.068 19.3786 40.5947 19.9333 39.448 20.668C28.708 27.5546 19.9707 36.3506 14.496 48.0053C9.68667 58.2386 9.58401 68.6146 14.552 78.864C19.8787 89.8506 28.568 97.296 39.632 102.115C51.1333 107.123 63.2507 109.192 78.376 109.543ZM58.452 12.756C61.0173 12.9453 63.492 13.1533 65.9707 13.3066C80.104 14.184 93.3973 17.888 105.601 25.172C118.427 32.8266 128.209 43.2186 133.877 57.188C140.428 73.3266 137.323 87.212 124.591 99.0133C123.237 100.267 121.808 101.451 120.333 102.56C111.624 109.115 101.717 112.921 91.0467 114.56C73.404 117.269 56.1853 115.34 39.5333 108.859C29.3933 104.912 20.6653 98.9493 14.148 90.112C2.812 74.748 1.544 58.5893 10.6453 41.7306C13.984 35.5453 18.4213 30.192 23.4413 25.3093C24.436 24.3413 25.4987 23.4426 26.1373 21.8413C25.236 21.8893 24.2653 21.7346 23.444 22.0173C17.952 23.908 12.4347 25.7453 7.04135 27.8946C3.06401 29.4786 1.512 29.6666 0.681337 27.8013C-0.12933 25.9813 0.878666 24.5133 4.41067 22.4373C11.1253 18.488 18.5093 16.4826 26.0827 15.068C28.4547 14.624 30.856 14.312 33.2547 14.0493C37.092 13.6306 40.6347 12.564 44.1747 10.8586C60.9227 2.78928 78.5947 -0.64537 97.1653 1.3733C104.587 2.17996 111.648 4.28929 117.981 8.39462C119.159 9.15729 120.496 10.0039 121.135 11.1573C121.617 12.0279 121.472 13.6906 120.911 14.544C120.531 15.12 118.941 15.012 117.896 14.9893C117.407 14.9786 116.911 14.472 116.447 14.1466C110.331 9.83864 103.313 7.99864 96.052 7.35064C84.0427 6.27864 72.2173 7.66398 60.6533 11.1186C59.9893 11.316 59.356 11.624 58.72 11.9053C58.6467 11.9386 58.6427 12.128 58.452 12.756Z" fill="#D61A49"/>
</svg>
